<?xml version="1.0" encoding="UTF-8"?>
<svg xmlns="http://www.w3.org/2000/svg" xmlns:xlink="http://www.w3.org/1999/xlink" xmlns:svgjs="http://svgjs.com/svgjs" version="1.1" width="512" height="512" x="0" y="0" viewBox="0 0 512 512" style="enable-background:new 0 0 512 512" xml:space="preserve" class="">
  <g>
    <path xmlns="http://www.w3.org/2000/svg" d="m325.332031 512h-266.664062c-32.363281 0-58.667969-26.304688-58.667969-58.667969v-288c0-32.363281 26.304688-58.664062 58.667969-58.664062h10.664062c8.832031 0 16 7.167969 16 16s-7.167969 16-16 16h-10.664062c-14.699219 0-26.667969 11.964843-26.667969 26.664062v288c0 14.699219 11.96875 26.667969 26.667969 26.667969h266.664062c14.699219 0 26.667969-11.96875 26.667969-26.667969v-10.664062c0-8.832031 7.167969-16 16-16s16 7.167969 16 16v10.664062c0 32.363281-26.304688 58.667969-58.667969 58.667969zm0 0" fill="#c3073f" data-original="#000000" class=""/>
    <path xmlns="http://www.w3.org/2000/svg" d="m410.667969 384h-224c-32.363281 0-58.667969-26.304688-58.667969-58.667969v-266.664062c0-32.363281 26.304688-58.667969 58.667969-58.667969h224c32.363281 0 58.664062 26.304688 58.664062 58.667969v266.664062c0 32.363281-26.300781 58.667969-58.664062 58.667969zm-224-352c-14.699219 0-26.667969 11.96875-26.667969 26.667969v266.664062c0 14.699219 11.96875 26.667969 26.667969 26.667969h224c14.699219 0 26.664062-11.96875 26.664062-26.667969v-266.664062c0-14.699219-11.964843-26.667969-26.664062-26.667969zm0 0" fill="#c3073f" data-original="#000000" class=""/>
  </g>
</svg>
